# xmcd
#
# Track frame offsets:
#	150
#	17558
#	34107
#	60787
#	88906
#	113324
#
# Disc length: 2066 seconds
#
# Revision: 0
# Processed by: cddbd v1.5.2PL0 Copyright (c) Steve Scherf et al.
# Submitted via: EasyCDDAExtractor 15.3.0.1
#
DISCID=37081006
DTITLE=Wass Featuring Earl T  - Summertime
DYEAR=2002
DGENRE=Blues, Funk
TTITLE0=Summertime (Los Chicharrons Radio Mix)
TTITLE1=Summertime (Original Radio Mix)
TTITLE2=Summertime (Los Chicharrons Club Mix)
TTITLE3=Summertime (Original Club Mix)
TTITLE4=Summertime (Ben Horn Downbeat Mix)
TTITLE5=Summertime (Kasbec Remix)
EXTD=
EXTT0=
EXTT1=
EXTT2=
EXTT3=
EXTT4=
EXTT5=
PLAYORDER=
